HIERARCHY
ROOT Hips
{
	OFFSET -14.64140 90.27770 -84.91600
	CHANNELS 6 Xposition Yposition Zposition Zrotation Xrotation Yrotation
	JOINT Spine
	{
		OFFSET 0.00000 13.20850 -1.60436
		CHANNELS 3 Zrotation Xrotation Yrotation
		JOINT Spine1
		{
			OFFSET 0.00000 8.61716 0.00000
			CHANNELS 3 Zrotation Xrotation Yrotation
			JOINT Spine2
			{
				OFFSET 0.00000 8.61717 0.00000
				CHANNELS 3 Zrotation Xrotation Yrotation
				JOINT Spine3
				{
					OFFSET 0.00000 8.61717 0.00000
					CHANNELS 3 Zrotation Xrotation Yrotation
					JOINT Neck
					{
						OFFSET 0.00000 11.07920 1.10792
						CHANNELS 3 Zrotation Xrotation Yrotation
						JOINT Neck1
						{
							OFFSET 0.00000 7.08032 0.00000
							CHANNELS 3 Zrotation Xrotation Yrotation
							JOINT Head
							{
								OFFSET 0.00000 7.08031 0.00000
								CHANNELS 3 Zrotation Xrotation Yrotation
								End site
								{
									OFFSET 0.00000 0.00000 0.00000
								}
							}
						}
					}
					JOINT RightShoulder
					{
						OFFSET -0.01000 7.91373 5.19711
						CHANNELS 3 Zrotation Xrotation Yrotation
						JOINT RightArm
						{
							OFFSET -18.41580 0.00000 0.00000
							CHANNELS 3 Zrotation Xrotation Yrotation
							JOINT RightForeArm
							{
								OFFSET -29.11090 0.00000 0.00000
								CHANNELS 3 Zrotation Xrotation Yrotation
								JOINT RightHand
								{
									OFFSET -24.65040 0.00000 0.00000
									CHANNELS 3 Zrotation Xrotation Yrotation
									JOINT RightHandThumb1
									{
										OFFSET -5.35114 -0.85590 3.97906
										CHANNELS 3 Zrotation Xrotation Yrotation
										JOINT RightHandThumb2
										{
											OFFSET -4.52789 0.00000 0.00000
											CHANNELS 3 Zrotation Xrotation Yrotation
											JOINT RightHandThumb3
											{
												OFFSET -2.46976 0.00000 0.00000
												CHANNELS 3 Zrotation Xrotation Yrotation
												End site
												{
													OFFSET 0.00000 0.00000 0.00000
												}
											}
										}
									}
									JOINT RightHandIndex1
									{
										OFFSET -14.26970 0.00000 2.88139
										CHANNELS 3 Zrotation Xrotation Yrotation
										JOINT RightHandIndex2
										{
											OFFSET -5.48836 0.00000 0.00000
											CHANNELS 3 Zrotation Xrotation Yrotation
											JOINT RightHandIndex3
											{
												OFFSET -3.01859 0.00000 0.00000
												CHANNELS 3 Zrotation Xrotation Yrotation
												End site
												{
													OFFSET 0.00000 0.00000 0.00000
												}
											}
										}
									}
									JOINT RightHandMiddle1
									{
										OFFSET -14.26970 0.00000 -0.09147
										CHANNELS 3 Zrotation Xrotation Yrotation
										JOINT RightHandMiddle2
										{
											OFFSET -6.17441 0.00000 0.00000
											CHANNELS 3 Zrotation Xrotation Yrotation
											JOINT RightHandMiddle3
											{
												OFFSET -3.56743 0.00000 0.00000
												CHANNELS 3 Zrotation Xrotation Yrotation
												End site
												{
													OFFSET 0.00000 0.00000 0.00000
												}
											}
										}
									}
									JOINT RightHandRing1
									{
										OFFSET -12.69180 0.00000 -3.06433
										CHANNELS 3 Zrotation Xrotation Yrotation
										JOINT RightHandRing2
										{
											OFFSET -5.62556 0.00000 0.00000
											CHANNELS 3 Zrotation Xrotation Yrotation
											JOINT RightHandRing3
											{
												OFFSET -3.56744 0.00000 0.00000
												CHANNELS 3 Zrotation Xrotation Yrotation
												End site
												{
													OFFSET 0.00000 0.00000 0.00000
												}
											}
										}
									}
									JOINT RightHandPinky1
									{
										OFFSET -11.11390 0.00000 -6.03719
										CHANNELS 3 Zrotation Xrotation Yrotation
										JOINT RightHandPinky2
										{
											OFFSET -4.52789 0.00000 0.00000
											CHANNELS 3 Zrotation Xrotation Yrotation
											JOINT RightHandPinky3
											{
												OFFSET -2.46976 0.00000 0.00000
												CHANNELS 3 Zrotation Xrotation Yrotation
												End site
												{
													OFFSET 0.00000 0.00000 0.00000
												}
											}
										}
									}
								}
							}
						}
					}
					JOINT LeftShoulder
					{
						OFFSET 0.01000 7.91373 5.19711
						CHANNELS 3 Zrotation Xrotation Yrotation
						JOINT LeftArm
						{
							OFFSET 18.41580 0.00000 0.00000
							CHANNELS 3 Zrotation Xrotation Yrotation
							JOINT LeftForeArm
							{
								OFFSET 29.11090 0.00000 0.00000
								CHANNELS 3 Zrotation Xrotation Yrotation
								JOINT LeftHand
								{
									OFFSET 24.65040 0.00000 0.00000
									CHANNELS 3 Zrotation Xrotation Yrotation
									JOINT LeftHandThumb1
									{
										OFFSET 5.35114 -0.85590 3.97906
										CHANNELS 3 Zrotation Xrotation Yrotation
										JOINT LeftHandThumb2
										{
											OFFSET 4.52789 0.00000 0.00000
											CHANNELS 3 Zrotation Xrotation Yrotation
											JOINT LeftHandThumb3
											{
												OFFSET 2.46977 0.00000 0.00000
												CHANNELS 3 Zrotation Xrotation Yrotation
												End site
												{
													OFFSET 0.00000 0.00000 0.00000
												}
											}
										}
									}
									JOINT LeftHandIndex1
									{
										OFFSET 14.26970 0.00000 2.88139
										CHANNELS 3 Zrotation Xrotation Yrotation
										JOINT LeftHandIndex2
										{
											OFFSET 5.48836 0.00000 0.00000
											CHANNELS 3 Zrotation Xrotation Yrotation
											JOINT LeftHandIndex3
											{
												OFFSET 3.01859 0.00000 0.00000
												CHANNELS 3 Zrotation Xrotation Yrotation
												End site
												{
													OFFSET 0.00000 0.00000 0.00000
												}
											}
										}
									}
									JOINT LeftHandMiddle1
									{
										OFFSET 14.26970 0.00000 -0.09147
										CHANNELS 3 Zrotation Xrotation Yrotation
										JOINT LeftHandMiddle2
										{
											OFFSET 6.17440 0.00000 0.00000
											CHANNELS 3 Zrotation Xrotation Yrotation
											JOINT LeftHandMiddle3
											{
												OFFSET 3.56744 0.00000 0.00000
												CHANNELS 3 Zrotation Xrotation Yrotation
												End site
												{
													OFFSET 0.00000 0.00000 0.00000
												}
											}
										}
									}
									JOINT LeftHandRing1
									{
										OFFSET 12.69180 0.00000 -3.06433
										CHANNELS 3 Zrotation Xrotation Yrotation
										JOINT LeftHandRing2
										{
											OFFSET 5.62556 0.00000 0.00000
											CHANNELS 3 Zrotation Xrotation Yrotation
											JOINT LeftHandRing3
											{
												OFFSET 3.56744 0.00000 0.00000
												CHANNELS 3 Zrotation Xrotation Yrotation
												End site
												{
													OFFSET 0.00000 0.00000 0.00000
												}
											}
										}
									}
									JOINT LeftHandPinky1
									{
										OFFSET 11.11390 0.00000 -6.03719
										CHANNELS 3 Zrotation Xrotation Yrotation
										JOINT LeftHandPinky2
										{
											OFFSET 4.52789 0.00000 0.00000
											CHANNELS 3 Zrotation Xrotation Yrotation
											JOINT LeftHandPinky3
											{
												OFFSET 2.46976 0.00000 0.00000
												CHANNELS 3 Zrotation Xrotation Yrotation
												End site
												{
													OFFSET 0.00000 0.00000 0.00000
												}
											}
										}
									}
								}
							}
						}
					}
					JOINT pCube4
					{
						OFFSET 0.00000 10.91090 1.10792
						CHANNELS 3 Zrotation Xrotation Yrotation
						End site
						{
							OFFSET 0.00000 0.00000 0.00000
						}
					}
				}
			}
		}
	}
	JOINT RightUpLeg
	{
		OFFSET -9.98441 0.00000 0.00000
		CHANNELS 3 Zrotation Xrotation Yrotation
		JOINT RightLeg
		{
			OFFSET 0.00000 -42.11790 0.00000
			CHANNELS 3 Zrotation Xrotation Yrotation
			JOINT RightFoot
			{
				OFFSET 0.00000 -45.00020 -0.00001
				CHANNELS 3 Zrotation Xrotation Yrotation
				JOINT RightForeFoot
				{
					OFFSET 0.00000 -3.74820 0.00000
					CHANNELS 3 Zrotation Xrotation Yrotation
					JOINT RightToeBase
					{
						OFFSET 0.00000 0.06325 14.43120
						CHANNELS 3 Zrotation Xrotation Yrotation
						End site
						{
							OFFSET 0.00000 0.00000 0.00000
						}
					}
				}
			}
		}
	}
	JOINT LeftUpLeg
	{
		OFFSET 9.98441 0.00000 0.00000
		CHANNELS 3 Zrotation Xrotation Yrotation
		JOINT LeftLeg
		{
			OFFSET 0.00000 -42.11800 0.00000
			CHANNELS 3 Zrotation Xrotation Yrotation
			JOINT LeftFoot
			{
				OFFSET 0.00000 -45.00070 0.00000
				CHANNELS 3 Zrotation Xrotation Yrotation
				JOINT LeftForeFoot
				{
					OFFSET 0.00000 -3.74824 0.00000
					CHANNELS 3 Zrotation Xrotation Yrotation
					JOINT LeftToeBase
					{
						OFFSET 0.00000 0.06325 14.43110
						CHANNELS 3 Zrotation Xrotation Yrotation
						End site
						{
							OFFSET 0.00000 0.00000 0.00000
						}
					}
				}
			}
		}
	}
}
MOTION
Frames: 4
Frame Time: 0.050000
-0.013420967652920519 -0.0026536762513781776 -0.023671237560217474 -0.04416668981295809 0.027728551315662042 0.00039298749713040625 2.363074333263213 1.06574379576739 -1.8518765158700379 -0.7748008910005818 3.395026170006406 0.38280905914448876 -0.9366309884591665 -1.662752684894276 0.5797883048018585 -0.5916594392684508 -0.2968708874690803 -0.42531991970776606 0.3077615266629225 13.080121235679124 -1.3204297958940525 0.5073990921325671 0.587175568382781 -3.595803956858394 1.0561162067108099 -14.766740161844035 -0.3573167435097827 -9.689630752415828 3.4555090281182768 -15.39168513109911 75.69755001188706 4.346512473977548 22.082789934030757 41.8505967268459 9.934355269331519 94.3182774364054 18.10342216260113 -0.4257620023048961 -7.51988139262912 4.483605247298799 -0.13147332551548951 -1.6070997993265204 0.027430727658190362 -0.01537096612201247 -56.24374842490513 -0.02737248390201364 -0.033055616317604945 -56.23599211243933 -38.791582962329734 -0.043975986289902846 -0.03486309313345385 0.020677848337250566 -0.024693112453828457 -0.016539427122043843 0.005961901531934805 0.029576094962613937 -0.004770793486274145 -36.739483667015456 -0.01152332426090826 0.02005541893556727 -0.01302760586922321 -0.007876754675776703 0.008761204326377203 -0.0454692951525118 -0.04053270170099503 -0.004377862776592219 -19.80497538782807 -0.0158135253848398 -0.009968247940291072 -0.009961039875413233 -0.01894780668427441 -0.015941872003433964 0.014079935071923021 -0.03445344803209669 -0.012476569908430412 24.058833920099115 -0.007367901801001451 0.004468924824434009 28.90254837786152 -0.009128137358726859 0.026787650505906986 28.877125013865484 0.049144034744587416 -0.019592030142347592 9.622295160295845 2.2914400759913534 13.17859272490253 -73.73078648086317 22.93577078938637 -19.73856182776683 -55.63829497620581 13.13713175429544 -95.93837560641015 -18.609060227965738 -8.302103315233781 6.500054127910897 -0.43056654990699295 0.0895457269316565 -8.1591621186923 -0.005714876500539188 0.0008461989284896817 44.57414856995653 -0.04014168566159201 -0.013392475980973415 44.60395256045152 12.474208822937713 -0.0021747414058852195 -0.046272944951553915 0.011160043837434117 -0.02051882314774945 0.016925966951597586 0.01522275442364805 0.0003232034576172539 -0.02050867317343289 11.077004027583538 -0.04282431786034602 -0.030012596577769227 0.03992493673368423 0.03250367913993976 0.04510749748883823 -0.019667944182753 -0.03650976795044115 0.016730640910682715 4.758446131020732 -0.010070363097137543 0.0009873488447393326 -0.04130085372710702 0.038380767869286264 -0.03059438726040683 -0.020655777144484095 0.0015983461250927088 0.011830129024452012 -5.60177877043034 -0.023371879839158605 0.036475458275794674 -6.768590283561978 0.021456587445024874 -0.009913882109208719 -6.729227783048587 0.037862388374008175 -0.04188394615975689 0.03656763407424878 -0.00513019539414764 0.04583475303572367 8.066622909787199 3.501881284920488 -19.239988553113605 0.0007298046985356589 10.357768851527059 -0.013484313900689004 -5.627582936149776 -15.676329830886846 3.1975063875558827 -0.008788122823572395 -0.01696246378376469 0.0371891248800253 0.049686641009047114 4.6657645661768825 -0.016928136417070812 12.425769389765742 -8.218638354924478 6.865789317511908 0.008746312589456982 46.428646634910876 0.0069008237253962434 -4.308625661268926 -14.77076468152984 -3.8137499889724222 -0.01622967606391001 -0.01809514396356541 -0.027071437981124664 0.035488092498420894 -10.713818529200395 0.04055890474058931 
0.009556599062538793 0.04914338637658814 0.019809757422400702 0.02277300058436252 0.0189540340054337 -0.01539760982375054 2.0104079250719242 0.9630753354151111 -1.7808548222066176 -0.7685767761835529 3.4162252993290716 0.41794828352151897 -0.9639824365088199 -1.6895274282067385 0.7000944577868341 -0.7240380574355167 -0.3775352516465103 -0.41439951369641786 0.39616293388277124 13.2911679373514 -1.3793249265035048 0.5163810855268318 0.6245648388990128 -3.7989548333830134 1.1213040038210513 -14.65427280339041 -0.3206070888462285 -9.904029492329261 3.5150870231039013 -15.341709032657919 75.336521660525 1.1412492775935912 24.183879172487682 41.775258865939165 9.572616337653319 95.30099997119774 17.48108381307289 -0.453805220386897 -7.244227497021413 4.552532218992858 -0.13846190100472117 -1.5844479212150233 -0.04298514002737978 -0.034638534049561596 -56.26759063488434 0.00826845803673314 -0.011674614282374212 -56.214068773594484 -38.79216190613558 0.0454400113554988 -0.034324966356530096 0.03710886348177508 0.01346360064713497 0.042963816313747516 0.0469105792311479 0.04271705025069745 0.018329541764448617 -36.6978268916959 0.014715339980501533 -0.018034255812284235 0.04213458960572314 0.011167894731079837 -0.026308381968364866 0.0040890338692157625 -0.03593270419229072 -0.049847720999893756 -19.764927302759528 0.005018516938431827 0.029121120043202064 -0.010549302488287173 0.043860949477585946 0.003359699375731023 -0.03417030300821754 0.009007841415454564 -0.00903311973511315 24.04610110898838 -0.023216090171186324 -0.03892732554333958 28.830213556722935 0.008487474542506675 -0.01686103179291219 28.868719334937364 0.009819141408317335 0.04023256032049456 9.299467498541098 2.28127364959811 13.220619111643748 -73.5408703066861 23.45219227069256 -19.029077285891116 -54.095300890998246 12.743444170939682 -95.91519437035257 -18.054856192057827 -7.8250507871815564 5.919659654227618 -0.5105109751042205 0.06606999516262356 -8.106236964596079 -0.00026184818807100806 -0.02187249431649475 44.57267913903113 0.0012092478290296404 -0.008648250813584502 44.6043564934501 12.43612464047867 -0.010843065747754949 -0.005576428754458967 -0.03558099701084418 -0.01782456929195662 0.03884851785719026 0.0031770721543962553 0.045167934336757726 -0.014439575404871126 11.113590956622325 -0.002771291468259972 0.02400374866502501 -0.022986292989327407 0.033982960025354655 0.002094756185112907 -0.033117447085464324 -0.008533715346121691 -0.004680401258075614 4.777162556995631 0.03581778949648204 -0.010575822659166071 -0.04799273617019383 0.007943138110036139 0.00018939361953667445 0.046937670146117175 0.016157557821192846 -0.012424401581316925 -5.574306326384134 -0.014087915443142396 0.010450766214622756 -6.717445475317383 0.024737906788502833 0.01326798361254408 -6.685297147769134 0.034821590186317336 -0.009150893277864862 0.04101929090242855 -0.03599766277122087 0.01640716416036845 8.05236063139325 3.4588431213291857 -19.237633188791754 -0.0027312996921857132 10.372446228860667 0.005358538420088384 -5.577494118917638 -15.6877694301865 3.2263561048307188 0.035873412104909734 -0.03277044760184991 -0.00948443157027312 -0.022683028576866746 4.680082652126046 -0.02065474810116829 12.505224230622872 -8.200414880229197 6.892528879413905 0.011344631796302226 46.3964984102071 0.028818778910925574 -4.3499015961934795 -14.702441954144968 -3.8537172523036425 0.03496246498749764 -0.024140374310539548 -0.025033021841465573 0.018392005413894984 -10.712225486517609 -0.03331370800273855 
-0.019002814358926753 0.023611933579843328 -0.011339649862196478 0.036363228618646874 0.003540666212074559 -0.0003351058795089444 1.7084260855481057 0.8940676566780656 -1.6908668983850095 -0.7834613458720037 3.3485990713814906 0.4051754822465751 -0.9863203743317299 -1.6896205988311968 0.9049877186687232 -0.785431223357686 -0.3489152814666545 -0.3829218915184005 0.5027064661423669 13.370181109005651 -1.3701977212217584 0.5541737156585658 0.6876988298708644 -3.989067354922071 1.202982978301671 -14.62419972639127 -0.37064388594633435 -10.10459791587492 3.5931438636507216 -15.169098780803527 75.0374010550968 -1.4179138638636963 26.562606948788194 40.8071159292486 9.374148859382084 96.42130640119795 16.880478577872715 -0.49739302547751013 -6.894496857609098 4.569364043898302 -0.10702997384947215 -1.582511181611096 -0.0460152164524348 -0.03495406245094177 -56.24610300139692 -0.0289359635780971 -0.00047574026727009727 -56.20355191978008 -38.760395542856486 -0.02372848145004722 0.045779584502915124 0.015266928088728957 -0.0022843353721237717 -0.029433916986577456 0.02851794976666161 0.049589910476146214 0.02654309712499759 -36.66752557084284 0.03946096713648389 -0.03640767202101084 0.008559163551806373 0.0014773759469913364 -0.02459689508558882 -0.03132907765725743 0.03839386629284926 -0.025658012778924065 -19.742807645981305 0.002872074218937328 -0.002833321805165006 -0.007684982722504627 0.021838286671027957 0.013361249772484977 0.022886892844860725 0.01232105700842842 -0.028123572646283065 24.031476298653196 -0.032478540741882424 0.022620768372803406 28.872434200120647 0.01085243934305446 0.006304160871919175 28.84618145911325 -0.01981711629478972 -0.021525378640985943 9.100040164156242 2.1836709885629197 13.200482482184254 -73.21455449395192 24.113733461418153 -18.293645632882402 -51.11977079077151 12.263156786226654 -95.91883607198652 -17.554237581754087 -7.447965351330081 5.499800043921509 -0.4602464446991567 0.08361353969215737 -8.153154361487212 -0.00741581429670995 -0.019804826913956672 44.535947792992296 -0.009621979518645293 0.00833089870497014 44.584534780767285 12.415089770776403 -0.017371987560973117 -0.03973497761648085 0.003405857423020863 0.003571354400414708 -0.025649680236185517 0.028070956877798287 -0.02107123592194819 -0.040825661708094985 11.070984783931957 0.039660730925041965 -0.019031639434783254 -0.031790540752130926 -0.04685651329847564 -0.027058764877242313 -0.017049080187484463 -0.02989783531027593 0.03898220818031335 4.770688467864343 -0.03109992510664113 0.04390533922775847 -0.030182309123586017 0.007366614367214064 -0.008313721400162195 0.032486179873897854 -0.042134833115496595 0.015947983522898366 -5.584231196589504 0.010641395291602556 -0.032764243193727664 -6.717440646850288 0.015067177915722223 -0.009059858090058683 -6.6739974906276185 -0.002947138003027617 0.006784204331660109 0.013944361879992899 -0.025431861910842606 -0.009459568824609597 8.083701065405164 3.4478426804081654 -19.187229128149916 0.04513426940292947 10.3845759958853 0.05009324092080711 -5.618287214510305 -15.619352597946037 3.1688258562764204 0.00896528926326189 -0.015292373150695992 -0.018848934226666694 -0.019887242829872257 4.647782260991121 -0.01304124925210391 12.473821379219057 -8.288559344991198 6.852397323535325 -0.012899828403863615 46.376688872287204 -0.0007273842408395184 -4.31324449444531 -14.788486871339911 -3.830765358395057 0.0210528935028974 0.02433816507328612 -0.0036349481500396914 0.0056185929855307295 -10.757414393033986 -0.03638603507590414 
-0.04328617394696894 0.041187699750864844 0.019181597896052803 -0.018504057333326832 -0.012222674980043364 -0.038340071103644444 1.638068291232308 0.8648706782716246 -1.7143678002372387 -0.8091853211302514 3.3729063974887756 0.44201086603047307 -1.0521170220929799 -1.7276647184924159 1.0650911164751073 -0.9418177407416405 -0.38354526555831514 -0.37894650455067724 0.5742117837855206 13.510174817775024 -1.3740557020906676 0.6417442642277195 0.6939931161455449 -3.9102124764623993 1.1512957341091536 -14.56756729008384 -0.31133384504602557 -10.288149633307667 3.6059222851900197 -15.086367517579236 75.12546512706037 -2.7109232317028504 28.46662573585522 40.292387965613315 9.365390829355713 98.12006576612589 16.411196631952386 -0.46520918942452705 -6.760110665507967 4.489344021004551 -0.1755728574085228 -1.5944145606739772 -0.04058692480723916 -0.01315433817007392 -56.25821081619159 0.02204919552571277 -0.014550644675375507 -56.20429503102198 -38.73990018942845 0.029642830568439422 0.020412023161622325 -0.0208682655271906 -0.001361538832709548 0.012796135177301824 0.026076738284359722 0.037515150158005724 -0.036624588852581845 -36.6908667301301 -0.024638472739823086 0.005481551985370789 0.0011510158581426574 0.014248578773086246 0.00564101921877771 0.019076445000541984 -0.0084609789918385 -0.04498253937659236 -19.770708654701576 0.040548059418970134 0.01542901962214126 -0.012091717513108892 -0.04593851409981612 0.0084997241597866 0.0268956317054628 -0.030663777410156034 0.02623455214844139 24.02067275097457 -0.02752692920895619 -0.0011676010622676193 28.889617912873625 -0.007746264169333267 0.028111224091778953 28.87181492454203 0.04628065880750986 0.042137005985531224 9.120011298474452 2.2262318810626214 13.1718042998494 -73.13974032392069 24.66140591735772 -18.24793747102152 -49.391140015260405 12.247146904553555 -97.04464592649866 -17.474372225014264 -7.419078400905923 5.305692057965872 -0.4623611823998834 0.07398241058060424 -8.107927932238018 -0.011852503284248389 -0.004817864381961538 44.53511879879287 0.0030620351341976155 0.039622981241650805 44.59130202810114 12.457281898465546 0.02401923098075348 -0.0360016314324076 -0.035586856884566996 -0.03560176775162456 0.03658062705196207 0.03801710327051444 -0.04282954426243405 0.0013696507967033257 11.112323455886743 -0.00101795535313336 -0.0285278362353026 0.01861461090035952 0.04772856398277566 -0.019687834393695546 -0.032135605655097384 0.00836117018631961 0.04526040284990769 4.818814319145849 -0.007478996323122395 0.025163556383702403 -0.01668137528752981 -0.027779789243510933 -0.01658513317879094 0.0008042834323257902 -0.01721880365741989 0.040238289669386494 -5.600635579414922 -0.00976499680359896 0.023548881917779506 -6.705960149170524 -0.03184712143337925 0.0004995120975939556 -6.71846672963362 -0.03321613500723293 -0.039571915016562126 0.02095714185547251 -0.010371068794196438 -0.018112804426965255 8.09229953559983 3.5099198054831486 -19.22835949907843 -0.009142580312432615 10.38534605014659 -0.024521526878502637 -5.65140480816936 -15.672784204484364 3.1431014043661407 0.019782173302428787 0.04715966341174376 -0.04762140497979889 0.03360975121897519 4.727200910821038 -0.013925587479143265 12.463836393453661 -8.241251613327757 6.915290052776751 -0.005038047865844591 46.338474797866375 0.031830218730459534 -4.368635719332105 -14.732653087372837 -3.7948244336935932 0.021439552339703547 -0.010992461065562998 0.015500560432184063 0.031172695916266327 -10.725496117180718 0.03579404300865462 
